<svg width="25" height="25" viewBox="0 0 25 25" fill="none" xmlns="http://www.w3.org/2000/svg">
<path d="M24.1235 25L14.3674 15.229C13.6052 15.916 12.7223 16.4377 11.7187 16.7939C10.7152 17.1501 9.70528 17.3282 8.68902 17.3282C6.27541 17.3282 4.22383 16.4886 2.5343 14.8092C0.844766 13.1298 0 11.0814 0 8.66412C0 6.24682 0.838414 4.19847 2.51524 2.51908C4.19207 0.839695 6.2373 0 8.65091 0C11.0645 0 13.1161 0.839695 14.8056 2.51908C16.4952 4.19847 17.3399 6.24682 17.3399 8.66412C17.3399 9.70738 17.1557 10.7316 16.7873 11.7366C16.419 12.7417 15.8918 13.626 15.2058 14.3893L25 24.1221L24.1235 25ZM8.68902 16.145C10.7978 16.145 12.5762 15.4262 14.0244 13.9886C15.4726 12.5509 16.1966 10.7761 16.1966 8.66412C16.1966 6.55216 15.4726 4.77099 14.0244 3.32061C12.5762 1.87023 10.7978 1.14504 8.68902 1.14504C6.58028 1.14504 4.80183 1.87023 3.35366 3.32061C1.90549 4.77099 1.1814 6.55216 1.1814 8.66412C1.1814 10.7761 1.90549 12.5509 3.35366 13.9886C4.80183 15.4262 6.58028 16.145 8.68902 16.145Z" fill="#D6B055"/>
</svg>
